<svg width="4000" height="2250" viewBox="0 0 4000 2250" fill="none" xmlns="http://www.w3.org/2000/svg">
<path d="M-698.71 2350.13C-273.888 2385.27 354.812 2660.33 949.317 2309.85C1587.86 1933.4 1717.83 1999.02 2369.36 1797.99C3458.63 1461.91 3008.52 257.666 3745.05 -129.375" stroke="#88BCDD" stroke-opacity="0.5" stroke-width="2.66667" stroke-miterlimit="10"/>
<path d="M-675.905 2385.06C-247.028 2399.72 354.673 2648.53 941.774 2301.45C1575.31 1926.64 1717.1 1991.91 2365.39 1797.74C3447.66 1472.99 3031.92 303.68 3756.02 -111.934" stroke="#88BCDD" stroke-opacity="0.5" stroke-width="2.66667" stroke-miterlimit="10"/>
<path d="M-653.1 2420C-220.165 2414.17 354.538 2636.72 934.235 2293.06C1562.76 1919.87 1716.36 1984.79 2361.43 1797.49C3436.67 1484.07 3055.31 349.696 3766.98 -94.4936" stroke="#88BCDD" stroke-opacity="0.5" stroke-width="2.66666" stroke-miterlimit="10"/>
<path d="M-630.291 2454.94C-193.303 2428.62 354.4 2624.91 926.701 2284.67C1550.21 1913.1 1715.62 1977.68 2357.45 1797.24C3425.69 1495.14 3078.73 395.7 3777.94 -77.0553" stroke="#88BCDD" stroke-opacity="0.5" stroke-width="2.66666" stroke-miterlimit="10"/>
<path d="M-607.488 2489.88C-166.444 2443.07 354.261 2613.1 919.165 2276.27C1537.67 1906.32 1714.9 1970.58 2353.49 1796.98C3414.74 1506.21 3102.16 441.691 3788.92 -59.6319" stroke="#88BCDD" stroke-opacity="0.5" stroke-width="2.66667" stroke-miterlimit="10"/>
<path d="M-584.683 2524.82C-139.583 2457.52 354.128 2601.3 911.627 2267.88C1525.12 1899.55 1714.17 1963.46 2349.53 1796.72C3403.78 1517.28 3125.56 487.706 3799.89 -42.1931" stroke="#88BCDD" stroke-opacity="0.5" stroke-width="2.66666" stroke-miterlimit="10"/>
<path d="M-561.877 2559.76C-112.722 2471.97 353.99 2589.5 904.086 2259.48C1512.57 1892.79 1713.43 1956.35 2345.56 1796.48C3392.79 1528.36 3148.98 533.712 3810.85 -24.7528" stroke="#88BCDD" stroke-opacity="0.5" stroke-width="2.66667" stroke-miterlimit="10"/>
<path d="M-539.074 2594.69C-85.859 2486.43 353.85 2577.68 896.553 2251.09C1500.02 1886.02 1712.69 1949.24 2341.58 1796.22C3381.83 1539.43 3172.4 579.717 3821.83 -7.3247" stroke="#88BCDD" stroke-opacity="0.5" stroke-width="2.66668" stroke-miterlimit="10"/>
<path d="M-516.269 2629.63C-58.9988 2500.88 353.715 2565.88 889.011 2242.68C1487.47 1879.25 1712.23 1943.3 2337.62 1795.96C3371.31 1552.43 3195.78 625.732 3832.79 10.1146" stroke="#88BCDD" stroke-opacity="0.5" stroke-width="2.66667" stroke-miterlimit="10"/>
<path d="M-493.466 2664.57C-32.1375 2515.33 353.577 2554.07 881.473 2234.3C1474.92 1872.48 1711.51 1936.31 2333.65 1795.72C3360.35 1563.71 3219.21 671.736 3843.76 27.5552" stroke="#88BCDD" stroke-opacity="0.5" stroke-width="2.66667" stroke-miterlimit="10"/>
<path d="M-470.656 2699.51C-5.27719 2529.78 353.441 2542.27 873.937 2225.91C1462.37 1865.71 1710.77 1929.3 2329.67 1795.46C3349.39 1574.95 3242.62 717.745 3854.72 44.995" stroke="#88BCDD" stroke-opacity="0.5" stroke-width="2.66667" stroke-miterlimit="10"/>
<path d="M-447.853 2734.45C21.5822 2544.23 353.3 2530.45 866.399 2217.51C1449.82 1858.94 1710.04 1922.29 2325.71 1795.22C3338.4 1586.18 3266.02 763.755 3865.68 62.4334" stroke="#88BCDD" stroke-opacity="0.5" stroke-width="2.66666" stroke-miterlimit="10"/>
<path d="M-425.047 2769.39C48.447 2558.69 353.164 2518.65 858.861 2209.12C1437.27 1852.17 1709.31 1915.27 2321.73 1794.96C3327.42 1597.4 3289.44 809.764 3876.64 79.8723" stroke="#88BCDD" stroke-opacity="0.5" stroke-width="2.66666" stroke-miterlimit="10"/>
<path d="M-402.243 2804.32C75.3064 2573.14 353.66 2507.78 851.319 2200.72C1425.45 1846.47 1708.56 1908.24 2317.76 1794.71C3316.45 1608.6 3312.84 855.777 3887.6 97.3142" stroke="#88BCDD" stroke-opacity="0.5" stroke-width="2.66665" stroke-miterlimit="10"/>
<path d="M-379.437 2839.27C102.169 2587.58 353.551 2496.01 843.786 2192.32C1412.94 1839.74 1707.82 1901.19 2313.81 1794.45C3305.49 1619.77 3336.27 901.771 3898.59 114.735" stroke="#88BCDD" stroke-opacity="0.5" stroke-width="2.66668" stroke-miterlimit="10"/>
<path d="M-356.629 2874.2C129.029 2602.04 353.434 2484.23 836.244 2183.92C1400.42 1833.02 1707.08 1894.14 2309.83 1794.2C3294.47 1630.94 3359.67 947.788 3909.55 132.18" stroke="#88BCDD" stroke-opacity="0.5" stroke-width="2.66666" stroke-miterlimit="10"/>
<path d="M-333.827 2909.14C155.892 2616.49 353.317 2472.45 828.711 2175.53C1387.9 1826.28 1706.33 1887.07 2305.86 1793.94C3283.5 1642.08 3383.1 993.783 3920.53 149.604" stroke="#88BCDD" stroke-opacity="0.5" stroke-width="2.66667" stroke-miterlimit="10"/>
<path d="M-311.023 2944.07C182.752 2630.94 353.193 2460.65 821.172 2167.13C1375.37 1819.54 1705.57 1880 2301.9 1793.68C3272.48 1653.21 3406.5 1039.8 3931.49 167.045" stroke="#88BCDD" stroke-opacity="0.5" stroke-width="2.66668" stroke-miterlimit="10"/>
<path d="M-288.215 2979.02C209.613 2645.39 353.064 2448.85 813.635 2158.74C1362.84 1812.79 1704.82 1872.92 2297.93 1793.44C3261.48 1664.33 3429.91 1085.8 3942.46 184.484" stroke="#88BCDD" stroke-opacity="0.5" stroke-width="2.66668" stroke-miterlimit="10"/>
<path d="M-265.41 3013.96C236.472 2659.84 352.937 2437.06 806.095 2150.34C1350.31 1806.03 1704.06 1865.82 2293.95 1793.18C3250.47 1675.41 3453.31 1131.82 3953.42 201.923" stroke="#88BCDD" stroke-opacity="0.5" stroke-width="2.66668" stroke-miterlimit="10"/>
<path d="M-242.606 3048.89C263.336 2674.3 352.796 2425.24 798.556 2141.95C1337.76 1799.27 1703.3 1858.71 2289.99 1792.94C3239.45 1686.49 3476.72 1177.82 3964.38 219.363" stroke="#88BCDD" stroke-opacity="0.5" stroke-width="2.66666" stroke-miterlimit="10"/>
<path d="M-219.802 3083.83C290.196 2688.75 352.657 2413.43 791.018 2133.56C1325.22 1792.5 1702.55 1851.59 2286.02 1792.68C3228.46 1697.54 3500.14 1223.83 3975.34 236.803" stroke="#88BCDD" stroke-opacity="0.5" stroke-width="2.66667" stroke-miterlimit="10"/>
<path d="M-196.994 3118.77C317.056 2703.2 352.514 2401.61 783.48 2125.16C1312.66 1785.72 1701.79 1844.46 2282.04 1792.44C3217.44 1708.56 3523.55 1269.84 3986.31 254.241" stroke="#88BCDD" stroke-opacity="0.5" stroke-width="2.66666" stroke-miterlimit="10"/>
<path d="M-174.189 3153.71C343.919 2717.65 352.365 2389.78 775.944 2116.77C1300.1 1778.93 1701.03 1837.31 2278.08 1792.18C3206.42 1719.57 3546.93 1315.85 3997.29 271.669" stroke="#88BCDD" stroke-opacity="0.5" stroke-width="2.66666" stroke-miterlimit="10"/>
<path d="M-151.385 3188.64C370.783 2732.11 352.209 2377.94 768.405 2108.37C1287.54 1772.13 1700.26 1830.15 2274.11 1791.92C3195.41 1730.55 3570.37 1361.85 4008.25 289.11" stroke="#88BCDD" stroke-opacity="0.5" stroke-width="2.66666" stroke-miterlimit="10"/>
<path d="M-128.578 3223.59C397.639 2746.56 352.044 2366.09 760.866 2099.98C1274.96 1765.33 1699.5 1822.97 2270.14 1791.68C3184.39 1741.53 3593.76 1407.87 4019.21 306.548" stroke="#88BCDD" stroke-opacity="0.5" stroke-width="2.66666" stroke-miterlimit="10"/>
<path d="M-105.774 3258.53C424.503 2761 351.882 2354.24 753.332 2091.58C1262.39 1758.5 1698.75 1815.78 2266.18 1791.41C3173.38 1752.47 3617.18 1453.86 4030.2 323.974" stroke="#88BCDD" stroke-opacity="0.5" stroke-width="2.66666" stroke-miterlimit="10"/>
<path d="M-82.9695 3293.46C451.362 2775.45 351.712 2342.39 745.793 2083.18C1249.81 1751.68 1698 1808.57 2262.21 1791.16C3162.39 1763.37 3640.6 1499.87 4041.16 341.41" stroke="#88BCDD" stroke-opacity="0.5" stroke-width="2.66666" stroke-miterlimit="10"/>
<path d="M-60.1647 3328.4C478.223 2789.9 351.533 2330.52 738.253 2074.79C1237.21 1744.84 1697.24 1801.36 2258.23 1790.91C3151.38 1774.27 3664.01 1545.89 4052.12 358.852" stroke="#88BCDD" stroke-opacity="0.5" stroke-width="2.66666" stroke-miterlimit="10"/>
<path d="M-37.3575 3363.35C505.084 2804.36 351.35 2318.65 730.715 2066.4C1224.61 1738 1696.48 1794.12 2254.28 1790.66C3140.38 1785.15 3687.42 1591.89 4063.08 376.29" stroke="#88BCDD" stroke-opacity="0.5" stroke-width="2.66667" stroke-miterlimit="10"/>
<path d="M-14.5533 3398.28C531.946 2818.81 350.698 2306.14 723.18 2058C1211.39 1730.32 1695.75 1786.87 2250.3 1790.4C3129.39 1796 3710.83 1637.9 4074.04 393.728" stroke="#88BCDD" stroke-opacity="0.5" stroke-width="2.66665" stroke-miterlimit="10"/>
<path d="M8.25168 3433.22C558.807 2833.26 350.56 2294.34 715.638 2049.61C1198.84 1723.55 1695.06 1778.6 2246.33 1790.16C3118.49 1805.23 3734.24 1683.9 4085.01 411.168" stroke="#88BCDD" stroke-opacity="0.5" stroke-width="2.66666" stroke-miterlimit="10"/>
<path d="M31.0559 3468.15C585.667 2847.71 350.425 2282.53 708.102 2041.21C1186.29 1716.78 1694.34 1771.49 2242.37 1789.9C3107.55 1816.31 3757.66 1729.91 4095.99 428.598" stroke="#88BCDD" stroke-opacity="0.5" stroke-width="2.66667" stroke-miterlimit="10"/>
<path d="M53.8635 3503.1C612.531 2862.17 350.287 2270.73 700.566 2032.82C1173.74 1710.01 1693.6 1764.38 2238.39 1789.64C3096.56 1827.38 3781.07 1775.91 4106.95 446.037" stroke="#88BCDD" stroke-opacity="0.5" stroke-width="2.66666" stroke-miterlimit="10"/>
<path d="M76.6674 3538.03C639.39 2876.62 350.149 2258.92 693.026 2024.42C1161.19 1703.24 1692.86 1757.27 2234.42 1789.4C3085.59 1838.46 3804.47 1821.93 4117.92 463.476" stroke="#88BCDD" stroke-opacity="0.5" stroke-width="2.66666" stroke-miterlimit="10"/>
<path d="M99.4726 3572.97C666.253 2891.07 350.012 2247.11 685.491 2016.02C1148.64 1696.46 1692.13 1750.15 2230.47 1789.13C3074.62 1849.53 3827.89 1867.93 4128.9 480.901" stroke="#88BCDD" stroke-opacity="0.5" stroke-width="2.66667" stroke-miterlimit="10"/>
<path d="M122.277 3607.91C693.113 2905.51 349.876 2235.3 677.953 2007.63C1852.86 1192.29 3666.87 2818.75 4139.86 498.34" stroke="#88BCDD" stroke-opacity="0.5" stroke-width="2.66667" stroke-miterlimit="10"/>
<path d="M-680.866 2496.86C-642.71 2210.53 -213.533 1895.78 570.978 2220.44C1239.82 2497.22 2261.69 2879.5 2663.18 1987.62C3089.22 1041.17 3870.78 -73.9544 4688.76 219.796" stroke="#F5F6F5" stroke-width="2.66667" stroke-miterlimit="10"/>
<path d="M-671.975 2515.16C-615.248 2226.88 -190.203 1879.39 592.689 2191.25C1257.93 2457.34 2297.52 2841.72 2700.75 1962.96C3122.6 1043.63 3881.75 -44.2915 4678.06 229.086" stroke="#F4F5F5" stroke-width="2.66667" stroke-miterlimit="10"/>
<path d="M-663.083 2533.45C-587.784 2243.24 -166.874 1863 614.399 2162.07C1276.04 2417.47 2333.25 2803.97 2738.31 1938.31C3155.8 1046.06 3892.74 -14.6318 4667.37 238.385" stroke="#F1F5F5" stroke-width="2.66667" stroke-miterlimit="10"/>
<path d="M-654.192 2551.75C-560.321 2259.6 -142.829 1845.05 636.11 2132.88C1294.77 2376.26 2368.94 2766.26 2775.87 1913.66C3188.84 1048.48 3903.74 15.0223 4656.67 247.675" stroke="#EFF4F5" stroke-width="2.66667" stroke-miterlimit="10"/>
<path d="M-645.3 2570.04C-532.859 2275.95 -119.314 1828.18 657.822 2103.69C1313.04 2335.98 2404.53 2728.6 2813.46 1889C3221.66 1050.87 3914.73 44.6768 4645.98 256.969" stroke="#ECF2F4" stroke-width="2.66667" stroke-miterlimit="10"/>
<path d="M-636.409 2588.34C-505.396 2292.31 -95.8254 1811.33 679.53 2074.5C1331.29 2295.72 2440.02 2690.97 2851.02 1864.34C3254.31 1053.23 3925.73 74.3392 4635.28 266.268" stroke="#EAF3F4" stroke-width="2.66666" stroke-miterlimit="10"/>
<path d="M-627.518 2606.63C-477.934 2308.67 -72.3661 1794.51 701.238 2045.32C1349.51 2255.5 2475.4 2653.39 2888.58 1839.69C3286.75 1055.55 3936.71 103.995 4624.59 275.558" stroke="#E7F2F4" stroke-width="2.66666" stroke-miterlimit="10"/>
<path d="M-618.629 2624.92C-450.47 2325.02 -48.9282 1777.71 722.954 2016.13C1367.72 2215.29 2510.69 2615.84 2926.17 1815.03C3319.01 1057.82 3947.73 133.642 4613.89 284.851" stroke="#E4F1F4" stroke-width="2.66667" stroke-miterlimit="10"/>
<path d="M-609.735 2643.21C-423.006 2341.38 -25.52 1760.95 744.66 1986.94C1385.9 2175.1 2545.87 2578.33 2963.74 1790.37C3351.03 1060.07 3958.71 163.307 4603.2 294.149" stroke="#E3F1F4" stroke-width="2.66666" stroke-miterlimit="10"/>
<path d="M-600.844 2661.52C-395.544 2357.73 -2.13098 1744.21 766.373 1957.75C1404.06 2134.95 2580.9 2540.83 3001.3 1765.72C3382.8 1062.27 3969.69 192.965 4592.5 303.441" stroke="#E1F0F4" stroke-width="2.66666" stroke-miterlimit="10"/>
<path d="M-591.952 2679.81C-368.082 2374.09 21.2283 1727.51 788.084 1928.56C1422.2 2094.81 2615.83 2503.36 3038.88 1741.06C3414.41 1064.39 3980.71 222.61 4581.83 312.725" stroke="#DEF0F4" stroke-width="2.66667" stroke-miterlimit="10"/>
<path d="M-583.06 2698.11C-340.617 2390.45 44.5701 1710.85 809.793 1899.38C1440.32 2054.73 2650.58 2465.92 3076.44 1716.41C3445.7 1066.49 3991.69 252.278 4571.12 322.032" stroke="#DCF0F4" stroke-width="2.66666" stroke-miterlimit="10"/>
<path d="M-574.171 2716.4C-313.155 2406.8 67.8862 1694.22 831.503 1870.19C1458.42 2014.66 2685.18 2428.47 3114.01 1691.75C3476.79 1068.49 4002.69 281.932 4560.42 331.323" stroke="#DAEFF5" stroke-width="2.66666" stroke-miterlimit="10"/>
<path d="M-565.281 2734.69C-285.692 2423.16 91.1816 1677.62 853.214 1841C1476.51 1974.63 2719.62 2391.04 3151.57 1667.1C3507.6 1070.43 4013.69 311.58 4549.74 340.608" stroke="#D8EFF5" stroke-width="2.66667" stroke-miterlimit="10"/>
<path d="M-556.39 2752.98C-258.229 2439.51 114.461 1661.07 874.927 1811.81C1494.58 1934.64 2753.86 2353.58 3189.15 1642.44C3538.15 1072.28 4024.67 341.239 4539.05 349.9" stroke="#D5EEF5" stroke-width="2.66667" stroke-miterlimit="10"/>
<path d="M-547.499 2771.28C-230.766 2455.87 137.721 1644.57 896.634 1782.63C1512.63 1894.69 2787.88 2316.12 3226.72 1617.78C3568.41 1074.05 4035.68 370.895 4528.36 359.195" stroke="#D4EDF5" stroke-width="2.66667" stroke-miterlimit="10"/>
<path d="M-538.609 2789.57C-203.303 2472.22 160.97 1628.11 918.347 1753.44C1530.68 1854.77 2821.66 2278.59 3264.29 1593.12C3598.41 1075.71 4046.67 400.551 4517.66 368.488" stroke="#D2EDF4" stroke-width="2.66667" stroke-miterlimit="10"/>
<path d="M-529.718 2807.86C-175.84 2488.58 184.201 1611.7 940.057 1724.25C1548.71 1814.89 2855.2 2241.02 3301.86 1568.47C3628.08 1077.27 4057.66 430.208 4506.97 377.781" stroke="#D0ECF4" stroke-width="2.66667" stroke-miterlimit="10"/>
<path d="M-520.827 2826.16C-148.377 2504.94 207.423 1595.34 961.767 1695.07C1566.73 1775.05 2888.43 2203.36 3339.42 1543.82C3657.45 1078.7 4068.64 459.871 4496.27 387.078" stroke="#CDEBF4" stroke-width="2.66667" stroke-miterlimit="10"/>
<path d="M-511.935 2844.46C-120.915 2521.29 230.639 1579.03 983.477 1665.88C1584.75 1735.25 2921.36 2165.58 3377 1519.16C3686.52 1080 4079.64 489.523 4485.58 396.372" stroke="#CBEBF4" stroke-width="2.66667" stroke-miterlimit="10"/>
<path d="M-503.044 2862.75C-93.4505 2537.65 253.844 1562.77 1005.18 1636.69C1602.76 1695.49 2953.93 2127.65 3414.56 1494.51C3715.29 1081.14 4090.63 519.184 4474.88 405.67" stroke="#C9EAF4" stroke-width="2.66666" stroke-miterlimit="10"/>
<path d="M-494.151 2881.05C-65.9875 2554.01 277.049 1546.56 1026.9 1607.51C1620.78 1655.77 2986.07 2089.52 3452.12 1469.85C3743.75 1082.11 4101.64 548.835 4464.19 414.961" stroke="#C7E9F4" stroke-width="2.66666" stroke-miterlimit="10"/>
<path d="M-485.26 2899.34C-38.5248 2570.37 300.254 1530.41 1048.61 1578.32C1638.79 1616.1 3017.75 2051.11 3489.69 1445.2C3771.86 1082.9 4112.61 578.496 4453.49 424.253" stroke="#C5EAF4" stroke-width="2.66667" stroke-miterlimit="10"/>
<path d="M-476.371 2917.63C-11.0609 2586.72 323.462 1514.32 1070.31 1549.14C1656.81 1576.47 3048.94 2012.37 3527.24 1420.54C3799.69 1083.48 4123.6 608.157 4442.8 433.55" stroke="#C3E9F4" stroke-width="2.66666" stroke-miterlimit="10"/>
<path d="M-467.48 2935.93C16.4018 2603.08 346.678 1498.28 1092.03 1519.94C1674.82 1536.88 3079.51 1973.19 3564.84 1395.88C3827.16 1083.82 4134.61 637.808 4432.1 442.843" stroke="#C1E9F4" stroke-width="2.66666" stroke-miterlimit="10"/>
<path d="M-458.59 2954.22C43.8655 2619.43 369.906 1482.3 1113.75 1490.75C1692.86 1497.33 3109.39 1933.43 3602.43 1371.22C3854.38 1083.89 4145.59 667.462 4421.43 452.126" stroke="#BFE8F5" stroke-width="2.66667" stroke-miterlimit="10"/>
<path d="M-449.7 2972.51C71.3287 2635.79 393.145 1466.38 1135.45 1461.57C1710.89 1457.83 3138.48 1892.94 3639.98 1346.56C3881.28 1083.69 4156.6 697.112 4410.73 461.419" stroke="#BDE7F4" stroke-width="2.66667" stroke-miterlimit="10"/>
<path d="M-440.806 2990.81C98.7881 2652.14 416.403 1450.53 1157.16 1432.38C1728.94 1418.38 3166.61 1851.51 3677.55 1321.91C3907.89 1083.15 4167.58 726.78 4400.02 470.724" stroke="#BBE7F4" stroke-width="2.66666" stroke-miterlimit="10"/>
<path d="M-431.913 3009.11C126.25 2668.49 439.68 1434.73 1178.87 1403.19C1747.02 1378.95 3193.66 1808.83 3715.12 1297.25C3934.31 1082.21 4178.59 756.426 4389.35 480.008" stroke="#B9E6F4" stroke-width="2.66667" stroke-miterlimit="10"/>
<path d="M-423.023 3027.4C153.715 2684.85 462.984 1418.98 1200.58 1374C1765.12 1339.58 3219.46 1764.54 3752.68 1272.6C3960.52 1080.85 4189.59 786.081 4378.65 489.301" stroke="#B8E5F4" stroke-width="2.66667" stroke-miterlimit="10"/>
<path d="M-414.131 3045.7C181.177 2701.21 486.354 1404.07 1222.29 1344.82C1783.25 1300.83 3243.75 1718.07 3790.26 1247.94C3986.66 1078.98 4200.59 815.744 4367.93 498.608" stroke="#B5E6F4" stroke-width="2.66666" stroke-miterlimit="10"/>
<path d="M-405.242 3063.99C208.64 2717.56 509.686 1387.68 1244 1315.63C1801.36 1260.95 3266.34 1668.74 3827.83 1223.28C4012.84 1076.5 4211.58 845.396 4357.26 507.89" stroke="#B3E5F4" stroke-width="2.66667" stroke-miterlimit="10"/>
<path d="M-777.663 2254.7C-733.332 2347.48 509.658 3388.06 1392.87 2641.11C2276.1 1894.18 1764.98 791.26 3266.67 734.283C4163.32 700.268 4635.03 354.047 4635.03 354.047" stroke="#3C71C1" stroke-width="2.66666" stroke-miterlimit="10"/>
<path d="M-768.178 2276.56C-711.017 2364.03 505.494 3363.53 1383.31 2625.86C2254.38 1892.22 1774.53 812.808 3260.87 753.364C4141.16 718.975 4609.29 381.379 4619.95 380.801" stroke="#3B6FC0" stroke-width="2.62963" stroke-miterlimit="10"/>
<path d="M-758.683 2298.44C-688.693 2380.58 501.327 3338.99 1373.72 2610.61C2232.66 1890.28 1784.05 834.38 3255.06 772.453C4118.99 737.695 4583.53 408.724 4604.82 407.577" stroke="#3B6EBF" stroke-width="2.59258" stroke-miterlimit="10"/>
<path d="M-749.199 2320.3C-666.376 2397.13 497.162 3314.46 1364.14 2595.35C2210.95 1888.34 1793.59 855.932 3249.27 791.532C4096.83 756.406 4557.77 436.06 4589.73 434.331" stroke="#3A6BBD" stroke-width="2.55556" stroke-miterlimit="10"/>
<path d="M-739.709 2342.18C-644.057 2413.69 494.628 3291.67 1354.56 2580.09C2190.83 1888.09 1803.14 877.496 3243.48 810.616C4074.67 775.12 4532.01 463.404 4574.63 461.101" stroke="#3969BC" stroke-width="2.51852" stroke-miterlimit="10"/>
<path d="M-730.218 2364.05C-621.738 2430.25 490.829 3267.54 1344.98 2564.83C2169.47 1886.53 1812.63 895.744 3237.65 829.707C4052.47 791.943 4506.25 490.75 4559.52 487.866" stroke="#3968BB" stroke-width="2.48148" stroke-miterlimit="10"/>
<path d="M-720.73 2385.92C-599.419 2446.8 487.017 3243.4 1335.41 2549.58C2148.08 1884.95 1822.14 916.69 3231.87 848.786C4030.3 810.326 4480.51 518.082 4544.41 514.629" stroke="#3866B9" stroke-width="2.44444" stroke-miterlimit="10"/>
<path d="M-711.241 2407.79C-577.099 2463.35 483.184 3219.25 1325.82 2534.31C2126.66 1883.35 1831.67 937.658 3226.04 867.878C4008.11 828.735 4454.74 545.426 4529.3 541.398" stroke="#3764B8" stroke-width="2.40741" stroke-miterlimit="10"/>
<path d="M-701.755 2429.65C-554.78 2479.91 479.337 3195.08 1316.24 2519.06C2105.24 1881.73 1841.19 958.641 3220.28 886.947C3985.94 847.151 4428.99 572.761 4514.22 568.154" stroke="#3763B8" stroke-width="2.37038" stroke-miterlimit="10"/>
<path d="M-692.265 2451.53C-532.461 2496.46 475.471 3170.9 1306.67 2503.8C2083.78 1880.09 1850.7 979.651 3214.46 906.037C3963.78 865.588 4403.25 600.101 4499.11 594.92" stroke="#3661B6" stroke-width="2.33334" stroke-miterlimit="10"/>
<path d="M-682.775 2473.39C-510.142 2513.01 471.583 3146.7 1297.09 2488.54C2062.31 1878.45 1860.21 1000.68 3208.65 925.123C3941.59 884.046 4377.47 627.443 4484 621.682" stroke="#365FB5" stroke-width="2.2963" stroke-miterlimit="10"/>
<path d="M-673.285 2495.27C-487.823 2529.57 467.678 3122.49 1287.52 2473.28C2040.8 1876.77 1869.72 1021.74 3202.86 944.206C3919.39 902.539 4351.73 654.783 4468.89 648.45" stroke="#355EB4" stroke-width="2.25926" stroke-miterlimit="10"/>
<path d="M-663.797 2517.14C-465.502 2546.12 463.749 3098.27 1277.93 2458.03C2019.28 1875.07 1879.22 1042.83 3197.05 963.293C3897.21 921.039 4325.96 682.129 4453.79 675.217" stroke="#355CB3" stroke-width="2.22222" stroke-miterlimit="10"/>
<path d="M-654.308 2539.01C-443.186 2562.67 459.8 3074.01 1268.36 2442.76C1997.73 1873.34 1888.72 1063.94 3191.23 982.381C3875.05 939.558 4300.22 709.464 4438.68 701.98" stroke="#355AB1" stroke-width="2.18519" stroke-miterlimit="10"/>
<path d="M-644.818 2560.88C-420.862 2579.23 455.826 3049.74 1258.77 2427.51C1976.15 1871.59 1898.22 1085.08 3185.45 1001.46C3852.83 958.115 4274.46 736.807 4423.57 728.748" stroke="#3459B1" stroke-width="2.14815" stroke-miterlimit="10"/>
<path d="M-635.325 2582.75C-398.541 2595.79 451.83 3025.45 1249.19 2412.25C1954.55 1869.81 1907.72 1106.25 3179.63 1020.55C3830.66 976.685 4248.7 764.148 4408.47 755.515" stroke="#3457AF" stroke-width="2.1111" stroke-miterlimit="10"/>
<path d="M-625.842 2604.61C-376.226 2612.33 447.809 3001.14 1239.61 2396.99C1932.93 1868.01 1917.22 1127.46 3173.86 1039.63C3808.48 995.272 4222.94 791.486 4393.38 782.273" stroke="#3356AE" stroke-width="2.07408" stroke-miterlimit="10"/>
<path d="M-616.348 2626.49C-353.904 2628.9 443.757 2976.79 1230.03 2381.74C1911.26 1866.19 1926.72 1148.71 3168.04 1058.72C3786.27 1013.9 4197.18 818.834 4378.25 809.047" stroke="#3355AD" stroke-width="2.03704" stroke-miterlimit="10"/>
<path d="M-606.863 2648.35C-331.586 2645.44 439.685 2952.42 1220.45 2366.47C1889.59 1864.32 1936.21 1169.99 3162.23 1077.8C3764.12 1032.53 4171.44 846.164 4363.17 835.8" stroke="#3253AC" stroke-width="2" stroke-miterlimit="10"/>
<path d="M-597.374 2670.23C-309.265 2662.01 435.577 2928.01 1210.88 2351.22C1867.88 1862.44 1945.71 1191.33 3156.45 1096.88C3741.93 1051.21 4145.69 873.506 4348.06 862.569" stroke="#3151AB" stroke-width="1.96296" stroke-miterlimit="10"/>
<path d="M-587.886 2692.09C-286.947 2678.55 431.441 2903.57 1201.3 2335.97C1846.15 1860.52 1955.21 1212.71 3150.62 1115.98C3719.73 1069.92 4119.92 900.85 4332.95 889.337" stroke="#3051AB" stroke-width="1.92592" stroke-miterlimit="10"/>
<path d="M-578.395 2713.97C-264.627 2695.11 427.277 2879.1 1191.72 2320.7C1824.38 1858.57 1964.7 1234.14 3144.82 1135.06C3697.55 1088.65 4094.16 928.189 4317.84 916.098" stroke="#304FA9" stroke-width="1.88889" stroke-miterlimit="10"/>
<path d="M-568.907 2735.83C-242.309 2711.66 423.077 2854.59 1182.14 2305.45C1802.58 1856.58 1974.18 1255.64 3139.03 1154.14C3675.35 1107.41 4068.4 955.535 4302.74 942.866" stroke="#304EA8" stroke-width="1.85185" stroke-miterlimit="10"/>
<path d="M-559.419 2757.71C-219.989 2728.22 418.848 2830.04 1172.56 2290.19C1780.76 1854.56 1983.69 1277.18 3133.24 1173.22C3653.2 1126.19 4042.66 982.862 4287.65 969.62" stroke="#2E4DA8" stroke-width="1.81482" stroke-miterlimit="10"/>
<path d="M-549.927 2779.58C-197.67 2744.77 414.574 2805.44 1162.98 2274.93C1758.9 1852.51 1993.19 1298.81 3127.42 1192.31C3630.99 1145.03 4016.88 1010.22 4272.52 996.398" stroke="#3659C6" stroke-opacity="0.45" stroke-width="1.77777" stroke-miterlimit="10"/>
<path d="M-540.44 2801.44C-175.35 2761.32 410.267 2780.8 1153.41 2259.67C1737.03 1850.41 2002.7 1320.5 3121.64 1211.38C3608.82 1163.88 3991.13 1037.55 4257.44 1023.15" stroke="#3659C6" stroke-opacity="0.45" stroke-width="1.74075" stroke-miterlimit="10"/>
<path d="M-530.949 2823.32C-153.032 2777.88 405.914 2756.1 1143.83 2244.42C1715.11 1848.27 2012.22 1342.28 3115.82 1230.47C3586.65 1182.77 3965.37 1064.89 4242.33 1049.92" stroke="#2C4AA5" stroke-width="1.70371" stroke-miterlimit="10"/>
<path d="M-521.463 2845.19C-130.711 2794.43 401.522 2731.33 1134.24 2229.17C1693.18 1846.09 2021.73 1364.16 3110.01 1249.57C3564.48 1201.71 3939.61 1092.24 4227.22 1076.69" stroke="#2C48A4" stroke-width="1.66667" stroke-miterlimit="10"/>
<path d="M-511.973 2867.06C-108.394 2810.98 397.085 2706.51 1124.67 2213.9C1671.21 1843.87 2031.26 1386.13 3104.22 1268.64C3542.3 1220.68 3913.87 1119.57 4212.11 1103.45" stroke="#2D47A3" stroke-width="1.62963" stroke-miterlimit="10"/>
<path d="M-502.484 2888.92C-86.0725 2827.54 392.6 2681.62 1115.08 2198.65C1649.19 1841.6 2040.8 1408.21 3098.41 1287.73C3520.13 1239.69 3888.1 1146.92 4197.01 1130.22" stroke="#2C46A2" stroke-width="1.59258" stroke-miterlimit="10"/>
<path d="M-492.993 2910.8C-63.7553 2844.09 388.062 2656.65 1105.5 2183.4C1627.16 1839.29 2050.36 1430.43 3092.6 1306.82C3497.98 1258.74 3862.33 1174.26 4181.9 1156.98" stroke="#2A45A1" stroke-width="1.55556" stroke-miterlimit="10"/>
<path d="M-483.509 2932.66C-41.4338 2860.65 383.472 2631.58 1095.93 2168.13C1605.09 1836.91 2059.95 1452.78 3086.81 1325.9C3475.83 1277.83 3836.61 1201.59 4166.81 1183.74" stroke="#BDE7F4" stroke-width="1.51852" stroke-miterlimit="10"/>
<path d="M-474.016 2954.54C-19.1167 2877.2 378.827 2606.43 1086.35 2152.88C1583 1834.49 2069.54 1475.3 3080.99 1344.99C3453.67 1296.97 3810.84 1228.94 4151.68 1210.51" stroke="#3FBCE3" stroke-width="1.48148" stroke-miterlimit="10"/>
<path d="M-464.529 2976.4C3.20422 2893.76 374.124 2581.18 1076.77 2137.62C1560.88 1832.01 2079.17 1497.99 3075.19 1364.07C3431.55 1316.15 3785.09 1256.27 4136.6 1237.27" stroke="#28429F" stroke-opacity="0.5" stroke-width="1.44444" stroke-miterlimit="10"/>
<path d="M-455.04 2998.28C25.5221 2910.31 369.354 2555.8 1067.19 2122.36C1538.73 1829.47 2088.85 1520.89 3069.39 1383.16C3409.43 1335.39 3759.33 1283.61 4121.49 1264.04" stroke="#B9E6F4" stroke-width="1.40741" stroke-miterlimit="10"/>
<path d="M-445.55 3020.15C47.843 2926.86 363.787 2529.22 1057.61 2107.1C1516.05 1826.14 2098.56 1544.03 3063.6 1402.23C3387.33 1354.66 3733.57 1310.96 4106.38 1290.8" stroke="#28409E" stroke-opacity="0.49" stroke-width="1.37038" stroke-miterlimit="10"/>
<path d="M-436.061 3042.02C505.297 2858.6 697.863 1500.77 4094.72 1316.62" stroke="#293F9C" stroke-opacity="0.5" stroke-width="1.33333" stroke-miterlimit="10"/>
</svg>
